<mxfile host="app.diagrams.net" agent="Mozilla/5.0 (Windows NT 10.0; Win64; x64) AppleWebKit/537.36 (KHTML, like Gecko) Chrome/133.0.0.0 Safari/537.36" version="26.0.5" pages="2">
  <diagram name="第 1 页" id="-GWqahgR6H9b3GAEnnep">
    <mxGraphModel dx="1654" dy="725" grid="0" gridSize="10" guides="1" tooltips="1" connect="1" arrows="1" fold="1" page="0" pageScale="1" pageWidth="827" pageHeight="1169" math="0" shadow="0">
      <root>
        <mxCell id="0" />
        <mxCell id="1" parent="0" />
        <mxCell id="dbSCkXmtqoAMXs0ZTFc3-5" value="" style="ellipse;whiteSpace=wrap;html=1;dashed=1;strokeColor=#66B2FF;strokeWidth=1.5;" vertex="1" parent="1">
          <mxGeometry x="-33" y="90" width="372.5" height="202" as="geometry" />
        </mxCell>
        <mxCell id="dbSCkXmtqoAMXs0ZTFc3-3" value="" style="ellipse;whiteSpace=wrap;html=1;dashed=1;strokeColor=#66B2FF;strokeWidth=1.5;" vertex="1" parent="1">
          <mxGeometry x="29" y="132" width="257" height="136" as="geometry" />
        </mxCell>
        <mxCell id="dbSCkXmtqoAMXs0ZTFc3-2" value="" style="ellipse;whiteSpace=wrap;html=1;dashed=1;strokeColor=#66B2FF;strokeWidth=1.5;" vertex="1" parent="1">
          <mxGeometry x="60" y="156" width="185" height="93" as="geometry" />
        </mxCell>
        <mxCell id="dbSCkXmtqoAMXs0ZTFc3-1" value="" style="ellipse;whiteSpace=wrap;html=1;dashed=1;strokeColor=#66B2FF;strokeWidth=1.5;" vertex="1" parent="1">
          <mxGeometry x="93" y="179" width="115" height="52" as="geometry" />
        </mxCell>
        <mxCell id="dbSCkXmtqoAMXs0ZTFc3-13" style="edgeStyle=none;curved=1;rounded=0;orthogonalLoop=1;jettySize=auto;html=1;entryX=1;entryY=1;entryDx=0;entryDy=0;fontSize=12;startSize=8;endSize=8;strokeColor=#66B2FF;" edge="1" parent="1" source="dbSCkXmtqoAMXs0ZTFc3-6" target="dbSCkXmtqoAMXs0ZTFc3-11">
          <mxGeometry relative="1" as="geometry" />
        </mxCell>
        <mxCell id="dbSCkXmtqoAMXs0ZTFc3-14" style="edgeStyle=none;curved=1;rounded=0;orthogonalLoop=1;jettySize=auto;html=1;entryX=1;entryY=1;entryDx=0;entryDy=0;fontSize=12;startSize=8;endSize=8;strokeColor=#66B2FF;" edge="1" parent="1" source="dbSCkXmtqoAMXs0ZTFc3-6" target="dbSCkXmtqoAMXs0ZTFc3-7">
          <mxGeometry relative="1" as="geometry" />
        </mxCell>
        <mxCell id="dbSCkXmtqoAMXs0ZTFc3-17" style="edgeStyle=none;curved=1;rounded=0;orthogonalLoop=1;jettySize=auto;html=1;entryX=0;entryY=0.5;entryDx=0;entryDy=0;fontSize=12;startSize=8;endSize=8;strokeColor=#66B2FF;" edge="1" parent="1" source="dbSCkXmtqoAMXs0ZTFc3-6" target="dbSCkXmtqoAMXs0ZTFc3-12">
          <mxGeometry relative="1" as="geometry" />
        </mxCell>
        <mxCell id="dbSCkXmtqoAMXs0ZTFc3-18" style="edgeStyle=none;curved=1;rounded=0;orthogonalLoop=1;jettySize=auto;html=1;entryX=0;entryY=1;entryDx=0;entryDy=0;fontSize=12;startSize=8;endSize=8;strokeColor=#66B2FF;" edge="1" parent="1" source="dbSCkXmtqoAMXs0ZTFc3-6" target="dbSCkXmtqoAMXs0ZTFc3-10">
          <mxGeometry relative="1" as="geometry" />
        </mxCell>
        <mxCell id="dbSCkXmtqoAMXs0ZTFc3-19" style="edgeStyle=none;curved=1;rounded=0;orthogonalLoop=1;jettySize=auto;html=1;fontSize=12;startSize=8;endSize=8;strokeColor=#66B2FF;" edge="1" parent="1" source="dbSCkXmtqoAMXs0ZTFc3-6" target="dbSCkXmtqoAMXs0ZTFc3-9">
          <mxGeometry relative="1" as="geometry" />
        </mxCell>
        <mxCell id="dbSCkXmtqoAMXs0ZTFc3-6" value="" style="ellipse;whiteSpace=wrap;html=1;aspect=fixed;fillColor=#7EA6E0;" vertex="1" parent="1">
          <mxGeometry x="143" y="198" width="11" height="11" as="geometry" />
        </mxCell>
        <mxCell id="dbSCkXmtqoAMXs0ZTFc3-7" value="" style="ellipse;whiteSpace=wrap;html=1;aspect=fixed;fillColor=#D4E1F5;" vertex="1" parent="1">
          <mxGeometry x="89" y="135" width="11" height="11" as="geometry" />
        </mxCell>
        <mxCell id="dbSCkXmtqoAMXs0ZTFc3-8" value="" style="ellipse;whiteSpace=wrap;html=1;aspect=fixed;fillColor=#D4E1F5;" vertex="1" parent="1">
          <mxGeometry x="141" y="126" width="11" height="11" as="geometry" />
        </mxCell>
        <mxCell id="dbSCkXmtqoAMXs0ZTFc3-57" style="edgeStyle=none;curved=1;rounded=0;orthogonalLoop=1;jettySize=auto;html=1;entryX=1;entryY=1;entryDx=0;entryDy=0;fontSize=12;startSize=8;endSize=8;dashed=1;strokeColor=#004C99;" edge="1" parent="1" source="dbSCkXmtqoAMXs0ZTFc3-9" target="dbSCkXmtqoAMXs0ZTFc3-51">
          <mxGeometry relative="1" as="geometry" />
        </mxCell>
        <mxCell id="dbSCkXmtqoAMXs0ZTFc3-9" value="" style="ellipse;whiteSpace=wrap;html=1;aspect=fixed;fillColor=#D4E1F5;" vertex="1" parent="1">
          <mxGeometry x="191" y="129" width="11" height="11" as="geometry" />
        </mxCell>
        <mxCell id="dbSCkXmtqoAMXs0ZTFc3-10" value="" style="ellipse;whiteSpace=wrap;html=1;aspect=fixed;fillColor=#DAE8FC;" vertex="1" parent="1">
          <mxGeometry x="249" y="149" width="11" height="11" as="geometry" />
        </mxCell>
        <mxCell id="dbSCkXmtqoAMXs0ZTFc3-11" value="" style="ellipse;whiteSpace=wrap;html=1;aspect=fixed;fillColor=#D4E1F5;" vertex="1" parent="1">
          <mxGeometry x="45" y="156" width="11" height="11" as="geometry" />
        </mxCell>
        <mxCell id="dbSCkXmtqoAMXs0ZTFc3-12" value="" style="ellipse;whiteSpace=wrap;html=1;aspect=fixed;fillColor=#D4E1F5;" vertex="1" parent="1">
          <mxGeometry x="281" y="192" width="11" height="11" as="geometry" />
        </mxCell>
        <mxCell id="dbSCkXmtqoAMXs0ZTFc3-15" style="edgeStyle=none;curved=1;rounded=0;orthogonalLoop=1;jettySize=auto;html=1;entryX=0.459;entryY=0.03;entryDx=0;entryDy=0;entryPerimeter=0;fontSize=12;startSize=8;endSize=8;strokeColor=#66B2FF;" edge="1" parent="1" source="dbSCkXmtqoAMXs0ZTFc3-6" target="dbSCkXmtqoAMXs0ZTFc3-3">
          <mxGeometry relative="1" as="geometry" />
        </mxCell>
        <mxCell id="dbSCkXmtqoAMXs0ZTFc3-22" value="&lt;font style=&quot;font-size: 20px;&quot; data-font-src=&quot;https://fonts.googleapis.com/css?family=Ma+Shan+Zheng&quot; face=&quot;Ma Shan Zheng&quot;&gt;x&lt;sub style=&quot;&quot;&gt;1&lt;/sub&gt;&lt;/font&gt;" style="text;html=1;align=center;verticalAlign=middle;whiteSpace=wrap;rounded=0;fontFamily=Helvetica;fontSize=11;fontColor=default;labelBackgroundColor=default;" vertex="1" parent="1">
          <mxGeometry x="-7" y="149" width="47" height="24" as="geometry" />
        </mxCell>
        <mxCell id="dbSCkXmtqoAMXs0ZTFc3-23" value="&lt;font style=&quot;font-size: 20px;&quot; data-font-src=&quot;https://fonts.googleapis.com/css?family=Ma+Shan+Zheng&quot; face=&quot;Ma Shan Zheng&quot;&gt;x&lt;sub style=&quot;&quot;&gt;2&lt;/sub&gt;&lt;/font&gt;" style="text;html=1;align=center;verticalAlign=middle;whiteSpace=wrap;rounded=0;fontFamily=Helvetica;fontSize=11;fontColor=default;labelBackgroundColor=default;" vertex="1" parent="1">
          <mxGeometry x="48" y="110" width="60" height="30" as="geometry" />
        </mxCell>
        <mxCell id="dbSCkXmtqoAMXs0ZTFc3-24" value="&lt;font style=&quot;font-size: 20px;&quot; face=&quot;Ma Shan Zheng&quot;&gt;x&lt;sub style=&quot;&quot;&gt;3&lt;/sub&gt;&lt;/font&gt;" style="text;html=1;align=center;verticalAlign=middle;whiteSpace=wrap;rounded=0;fontFamily=Helvetica;fontSize=11;fontColor=default;labelBackgroundColor=default;" vertex="1" parent="1">
          <mxGeometry x="116.5" y="96" width="60" height="30" as="geometry" />
        </mxCell>
        <mxCell id="dbSCkXmtqoAMXs0ZTFc3-25" value="&lt;font style=&quot;font-size: 20px;&quot; data-font-src=&quot;https://fonts.googleapis.com/css?family=Ma+Shan+Zheng&quot; face=&quot;Ma Shan Zheng&quot;&gt;x&lt;sub style=&quot;&quot;&gt;4&lt;/sub&gt;&lt;/font&gt;" style="text;html=1;align=center;verticalAlign=middle;whiteSpace=wrap;rounded=0;fontFamily=Helvetica;fontSize=11;fontColor=default;labelBackgroundColor=default;" vertex="1" parent="1">
          <mxGeometry x="181" y="103" width="54" height="26" as="geometry" />
        </mxCell>
        <mxCell id="dbSCkXmtqoAMXs0ZTFc3-28" value="&lt;font style=&quot;font-size: 20px;&quot; data-font-src=&quot;https://fonts.googleapis.com/css?family=Ma+Shan+Zheng&quot; face=&quot;Ma Shan Zheng&quot;&gt;x&lt;sub style=&quot;&quot;&gt;5&lt;/sub&gt;&lt;/font&gt;" style="text;html=1;align=center;verticalAlign=middle;whiteSpace=wrap;rounded=0;fontFamily=Helvetica;fontSize=11;fontColor=default;labelBackgroundColor=default;" vertex="1" parent="1">
          <mxGeometry x="241" y="122" width="60" height="30" as="geometry" />
        </mxCell>
        <mxCell id="dbSCkXmtqoAMXs0ZTFc3-29" value="&lt;font style=&quot;font-size: 20px;&quot; data-font-src=&quot;https://fonts.googleapis.com/css?family=Ma+Shan+Zheng&quot; face=&quot;Ma Shan Zheng&quot;&gt;x&lt;sub style=&quot;&quot;&gt;6&lt;/sub&gt;&lt;/font&gt;" style="text;html=1;align=center;verticalAlign=middle;whiteSpace=wrap;rounded=0;fontFamily=Helvetica;fontSize=11;fontColor=default;labelBackgroundColor=default;" vertex="1" parent="1">
          <mxGeometry x="286" y="176" width="60" height="30" as="geometry" />
        </mxCell>
        <mxCell id="dbSCkXmtqoAMXs0ZTFc3-34" value="&lt;font style=&quot;font-size: 30px;&quot;&gt;...&lt;/font&gt;" style="text;html=1;align=center;verticalAlign=middle;whiteSpace=wrap;rounded=0;fontFamily=Helvetica;fontSize=11;fontColor=default;labelBackgroundColor=default;rotation=20;" vertex="1" parent="1">
          <mxGeometry x="289" y="152" width="19" height="1" as="geometry" />
        </mxCell>
        <mxCell id="dbSCkXmtqoAMXs0ZTFc3-43" style="edgeStyle=none;curved=1;rounded=0;orthogonalLoop=1;jettySize=auto;html=1;exitX=0.25;exitY=1;exitDx=0;exitDy=0;fontSize=12;startSize=8;endSize=8;" edge="1" parent="1" source="dbSCkXmtqoAMXs0ZTFc3-34" target="dbSCkXmtqoAMXs0ZTFc3-34">
          <mxGeometry relative="1" as="geometry" />
        </mxCell>
        <mxCell id="dbSCkXmtqoAMXs0ZTFc3-44" value="&lt;font style=&quot;font-size: 30px;&quot;&gt;...&lt;/font&gt;" style="text;html=1;align=center;verticalAlign=middle;whiteSpace=wrap;rounded=0;fontFamily=Helvetica;fontSize=11;fontColor=default;labelBackgroundColor=default;rotation=-15;" vertex="1" parent="1">
          <mxGeometry x="32.99808996912898" y="130.9990376719868" width="19" height="1" as="geometry" />
        </mxCell>
        <mxCell id="dbSCkXmtqoAMXs0ZTFc3-48" value="&lt;font style=&quot;font-size: 20px;&quot; data-font-src=&quot;https://fonts.googleapis.com/css?family=Ma+Shan+Zheng&quot; face=&quot;Ma Shan Zheng&quot;&gt;u&lt;/font&gt;" style="text;html=1;align=center;verticalAlign=middle;whiteSpace=wrap;rounded=0;fontFamily=Helvetica;fontSize=11;fontColor=default;labelBackgroundColor=default;" vertex="1" parent="1">
          <mxGeometry x="107" y="199" width="60" height="30" as="geometry" />
        </mxCell>
        <mxCell id="dbSCkXmtqoAMXs0ZTFc3-49" value="&lt;font style=&quot;font-size: 20px;&quot; data-font-src=&quot;https://fonts.googleapis.com/css?family=Ma+Shan+Zheng&quot; face=&quot;Ma Shan Zheng&quot;&gt;l-1&lt;/font&gt;" style="text;html=1;align=center;verticalAlign=middle;whiteSpace=wrap;rounded=0;fontFamily=Helvetica;fontSize=11;fontColor=default;labelBackgroundColor=default;" vertex="1" parent="1">
          <mxGeometry x="227" y="229" width="60" height="30" as="geometry" />
        </mxCell>
        <mxCell id="dbSCkXmtqoAMXs0ZTFc3-50" value="&lt;font style=&quot;font-size: 20px;&quot; data-font-src=&quot;https://fonts.googleapis.com/css?family=Ma+Shan+Zheng&quot; face=&quot;Ma Shan Zheng&quot;&gt;l&lt;/font&gt;" style="text;html=1;align=center;verticalAlign=middle;whiteSpace=wrap;rounded=0;fontFamily=Helvetica;fontSize=11;fontColor=default;labelBackgroundColor=default;" vertex="1" parent="1">
          <mxGeometry x="266" y="247" width="60" height="30" as="geometry" />
        </mxCell>
        <mxCell id="dbSCkXmtqoAMXs0ZTFc3-51" value="" style="ellipse;whiteSpace=wrap;html=1;aspect=fixed;fillColor=#0066CC;" vertex="1" parent="1">
          <mxGeometry x="176.5" y="85" width="11" height="11" as="geometry" />
        </mxCell>
        <mxCell id="dbSCkXmtqoAMXs0ZTFc3-52" value="&lt;font style=&quot;font-size: 20px;&quot; data-font-src=&quot;https://fonts.googleapis.com/css?family=Ma+Shan+Zheng&quot; face=&quot;Ma Shan Zheng&quot;&gt;v&lt;/font&gt;" style="text;html=1;align=center;verticalAlign=middle;whiteSpace=wrap;rounded=0;fontFamily=Helvetica;fontSize=11;fontColor=default;labelBackgroundColor=default;" vertex="1" parent="1">
          <mxGeometry x="164" y="55" width="60" height="30" as="geometry" />
        </mxCell>
        <mxCell id="dbSCkXmtqoAMXs0ZTFc3-54" style="edgeStyle=none;curved=1;rounded=0;orthogonalLoop=1;jettySize=auto;html=1;entryX=0.578;entryY=0.012;entryDx=0;entryDy=0;entryPerimeter=0;fontSize=12;startSize=8;endSize=8;dashed=1;strokeColor=#004C99;exitX=0.5;exitY=0;exitDx=0;exitDy=0;" edge="1" parent="1" source="dbSCkXmtqoAMXs0ZTFc3-11">
          <mxGeometry relative="1" as="geometry">
            <mxPoint x="49.57195672097983" y="159.99773870675716" as="sourcePoint" />
            <mxPoint x="176.50499999999994" y="93.474" as="targetPoint" />
          </mxGeometry>
        </mxCell>
        <mxCell id="dbSCkXmtqoAMXs0ZTFc3-55" style="edgeStyle=none;curved=1;rounded=0;orthogonalLoop=1;jettySize=auto;html=1;entryX=0.231;entryY=-0.039;entryDx=0;entryDy=0;entryPerimeter=0;fontSize=12;startSize=8;endSize=8;dashed=1;strokeColor=#004C99;exitX=0.838;exitY=0.926;exitDx=0;exitDy=0;exitPerimeter=0;" edge="1" parent="1" source="dbSCkXmtqoAMXs0ZTFc3-23">
          <mxGeometry relative="1" as="geometry">
            <mxPoint x="92.99913234259027" y="135.32911426546937" as="sourcePoint" />
            <mxPoint x="183.92400000000004" y="95.99599999999997" as="targetPoint" />
          </mxGeometry>
        </mxCell>
        <mxCell id="dbSCkXmtqoAMXs0ZTFc3-56" style="edgeStyle=none;curved=1;rounded=0;orthogonalLoop=1;jettySize=auto;html=1;entryX=0.277;entryY=-0.011;entryDx=0;entryDy=0;entryPerimeter=0;fontSize=12;startSize=8;endSize=8;dashed=1;strokeColor=#004C99;exitX=0.5;exitY=1;exitDx=0;exitDy=0;" edge="1" parent="1" source="dbSCkXmtqoAMXs0ZTFc3-24">
          <mxGeometry relative="1" as="geometry">
            <mxPoint x="140.99957652706595" y="124.68480355613904" as="sourcePoint" />
            <mxPoint x="182.91799999999998" y="96.00399999999998" as="targetPoint" />
          </mxGeometry>
        </mxCell>
        <mxCell id="dbSCkXmtqoAMXs0ZTFc3-59" style="edgeStyle=none;curved=1;rounded=0;orthogonalLoop=1;jettySize=auto;html=1;entryX=1.033;entryY=0.668;entryDx=0;entryDy=0;entryPerimeter=0;fontSize=12;startSize=8;endSize=8;dashed=1;strokeColor=#004C99;" edge="1" parent="1" source="dbSCkXmtqoAMXs0ZTFc3-10" target="dbSCkXmtqoAMXs0ZTFc3-51">
          <mxGeometry relative="1" as="geometry" />
        </mxCell>
        <mxCell id="dbSCkXmtqoAMXs0ZTFc3-60" style="edgeStyle=none;curved=1;rounded=0;orthogonalLoop=1;jettySize=auto;html=1;entryX=0.588;entryY=0.022;entryDx=0;entryDy=0;entryPerimeter=0;fontSize=12;startSize=8;endSize=8;dashed=1;strokeColor=#004C99;" edge="1" parent="1" source="dbSCkXmtqoAMXs0ZTFc3-12" target="dbSCkXmtqoAMXs0ZTFc3-5">
          <mxGeometry relative="1" as="geometry" />
        </mxCell>
        <mxCell id="dbSCkXmtqoAMXs0ZTFc3-61" value="" style="ellipse;whiteSpace=wrap;html=1;dashed=1;strokeColor=#66B2FF;strokeWidth=1.5;" vertex="1" parent="1">
          <mxGeometry x="395" y="90" width="372.5" height="202" as="geometry" />
        </mxCell>
        <mxCell id="dbSCkXmtqoAMXs0ZTFc3-62" value="" style="ellipse;whiteSpace=wrap;html=1;dashed=1;strokeColor=#66B2FF;strokeWidth=1.5;" vertex="1" parent="1">
          <mxGeometry x="457" y="132" width="257" height="136" as="geometry" />
        </mxCell>
        <mxCell id="dbSCkXmtqoAMXs0ZTFc3-63" value="" style="ellipse;whiteSpace=wrap;html=1;dashed=1;strokeColor=#66B2FF;strokeWidth=1.5;" vertex="1" parent="1">
          <mxGeometry x="488" y="156" width="185" height="93" as="geometry" />
        </mxCell>
        <mxCell id="dbSCkXmtqoAMXs0ZTFc3-64" value="" style="ellipse;whiteSpace=wrap;html=1;dashed=1;strokeColor=#66B2FF;strokeWidth=1.5;" vertex="1" parent="1">
          <mxGeometry x="521" y="179" width="115" height="52" as="geometry" />
        </mxCell>
        <mxCell id="dbSCkXmtqoAMXs0ZTFc3-66" style="edgeStyle=none;curved=1;rounded=0;orthogonalLoop=1;jettySize=auto;html=1;entryX=1;entryY=1;entryDx=0;entryDy=0;fontSize=12;startSize=8;endSize=8;strokeColor=#b85450;fillColor=#f8cecc;" edge="1" parent="1" source="dbSCkXmtqoAMXs0ZTFc3-70" target="dbSCkXmtqoAMXs0ZTFc3-71">
          <mxGeometry relative="1" as="geometry" />
        </mxCell>
        <mxCell id="dbSCkXmtqoAMXs0ZTFc3-68" style="edgeStyle=none;curved=1;rounded=0;orthogonalLoop=1;jettySize=auto;html=1;entryX=0;entryY=1;entryDx=0;entryDy=0;fontSize=12;startSize=8;endSize=8;strokeColor=#b85450;fillColor=#f8cecc;" edge="1" parent="1" source="dbSCkXmtqoAMXs0ZTFc3-70" target="dbSCkXmtqoAMXs0ZTFc3-75">
          <mxGeometry relative="1" as="geometry" />
        </mxCell>
        <mxCell id="dbSCkXmtqoAMXs0ZTFc3-70" value="" style="ellipse;whiteSpace=wrap;html=1;aspect=fixed;fillColor=#7EA6E0;" vertex="1" parent="1">
          <mxGeometry x="571" y="198" width="11" height="11" as="geometry" />
        </mxCell>
        <mxCell id="dbSCkXmtqoAMXs0ZTFc3-71" value="" style="ellipse;whiteSpace=wrap;html=1;aspect=fixed;fillColor=#f8cecc;strokeColor=#b85450;" vertex="1" parent="1">
          <mxGeometry x="517" y="135" width="11" height="11" as="geometry" />
        </mxCell>
        <mxCell id="dbSCkXmtqoAMXs0ZTFc3-72" value="" style="ellipse;whiteSpace=wrap;html=1;aspect=fixed;fillColor=#f8cecc;strokeColor=#b85450;" vertex="1" parent="1">
          <mxGeometry x="569" y="126" width="11" height="11" as="geometry" />
        </mxCell>
        <mxCell id="dbSCkXmtqoAMXs0ZTFc3-74" value="" style="ellipse;whiteSpace=wrap;html=1;aspect=fixed;fillColor=#bac8d3;strokeColor=#23445d;" vertex="1" parent="1">
          <mxGeometry x="619" y="129" width="11" height="11" as="geometry" />
        </mxCell>
        <mxCell id="dbSCkXmtqoAMXs0ZTFc3-75" value="" style="ellipse;whiteSpace=wrap;html=1;aspect=fixed;fillColor=#f8cecc;strokeColor=#b85450;" vertex="1" parent="1">
          <mxGeometry x="677" y="149" width="11" height="11" as="geometry" />
        </mxCell>
        <mxCell id="dbSCkXmtqoAMXs0ZTFc3-76" value="" style="ellipse;whiteSpace=wrap;html=1;aspect=fixed;fillColor=#bac8d3;strokeColor=#23445d;" vertex="1" parent="1">
          <mxGeometry x="473" y="156" width="11" height="11" as="geometry" />
        </mxCell>
        <mxCell id="dbSCkXmtqoAMXs0ZTFc3-77" value="" style="ellipse;whiteSpace=wrap;html=1;aspect=fixed;fillColor=#bac8d3;strokeColor=#23445d;" vertex="1" parent="1">
          <mxGeometry x="709" y="192" width="11" height="11" as="geometry" />
        </mxCell>
        <mxCell id="dbSCkXmtqoAMXs0ZTFc3-78" style="edgeStyle=none;curved=1;rounded=0;orthogonalLoop=1;jettySize=auto;html=1;entryX=0.459;entryY=0.03;entryDx=0;entryDy=0;entryPerimeter=0;fontSize=12;startSize=8;endSize=8;strokeColor=#b85450;fillColor=#f8cecc;" edge="1" parent="1" source="dbSCkXmtqoAMXs0ZTFc3-70" target="dbSCkXmtqoAMXs0ZTFc3-62">
          <mxGeometry relative="1" as="geometry" />
        </mxCell>
        <mxCell id="dbSCkXmtqoAMXs0ZTFc3-79" value="&lt;font style=&quot;font-size: 20px;&quot; data-font-src=&quot;https://fonts.googleapis.com/css?family=Ma+Shan+Zheng&quot; face=&quot;Ma Shan Zheng&quot;&gt;x&lt;sub style=&quot;&quot;&gt;1&lt;/sub&gt;&lt;/font&gt;" style="text;html=1;align=center;verticalAlign=middle;whiteSpace=wrap;rounded=0;fontFamily=Helvetica;fontSize=11;fontColor=default;labelBackgroundColor=default;" vertex="1" parent="1">
          <mxGeometry x="421" y="149" width="47" height="24" as="geometry" />
        </mxCell>
        <mxCell id="dbSCkXmtqoAMXs0ZTFc3-80" value="&lt;font color=&quot;#ae4132&quot; style=&quot;font-size: 20px;&quot; data-font-src=&quot;https://fonts.googleapis.com/css?family=Ma+Shan+Zheng&quot; face=&quot;Ma Shan Zheng&quot;&gt;x&lt;sub style=&quot;&quot;&gt;2&lt;/sub&gt;&lt;/font&gt;" style="text;html=1;align=center;verticalAlign=middle;whiteSpace=wrap;rounded=0;fontFamily=Helvetica;fontSize=11;fontColor=default;labelBackgroundColor=default;" vertex="1" parent="1">
          <mxGeometry x="476" y="110" width="60" height="30" as="geometry" />
        </mxCell>
        <mxCell id="dbSCkXmtqoAMXs0ZTFc3-81" value="&lt;font color=&quot;#ae4132&quot; style=&quot;font-size: 20px;&quot; face=&quot;Ma Shan Zheng&quot;&gt;x&lt;sub style=&quot;&quot;&gt;3&lt;/sub&gt;&lt;/font&gt;" style="text;html=1;align=center;verticalAlign=middle;whiteSpace=wrap;rounded=0;fontFamily=Helvetica;fontSize=11;fontColor=default;labelBackgroundColor=default;" vertex="1" parent="1">
          <mxGeometry x="544.5" y="96" width="60" height="30" as="geometry" />
        </mxCell>
        <mxCell id="dbSCkXmtqoAMXs0ZTFc3-82" value="&lt;font style=&quot;font-size: 20px;&quot; data-font-src=&quot;https://fonts.googleapis.com/css?family=Ma+Shan+Zheng&quot; face=&quot;Ma Shan Zheng&quot;&gt;x&lt;sub style=&quot;&quot;&gt;4&lt;/sub&gt;&lt;/font&gt;" style="text;html=1;align=center;verticalAlign=middle;whiteSpace=wrap;rounded=0;fontFamily=Helvetica;fontSize=11;fontColor=default;labelBackgroundColor=default;" vertex="1" parent="1">
          <mxGeometry x="609" y="103" width="54" height="26" as="geometry" />
        </mxCell>
        <mxCell id="dbSCkXmtqoAMXs0ZTFc3-83" value="&lt;font color=&quot;#ae4132&quot; style=&quot;font-size: 20px;&quot; data-font-src=&quot;https://fonts.googleapis.com/css?family=Ma+Shan+Zheng&quot; face=&quot;Ma Shan Zheng&quot;&gt;x&lt;sub style=&quot;&quot;&gt;5&lt;/sub&gt;&lt;/font&gt;" style="text;html=1;align=center;verticalAlign=middle;whiteSpace=wrap;rounded=0;fontFamily=Helvetica;fontSize=11;fontColor=default;labelBackgroundColor=default;" vertex="1" parent="1">
          <mxGeometry x="667" y="123" width="60" height="30" as="geometry" />
        </mxCell>
        <mxCell id="dbSCkXmtqoAMXs0ZTFc3-84" value="&lt;font style=&quot;font-size: 20px;&quot; data-font-src=&quot;https://fonts.googleapis.com/css?family=Ma+Shan+Zheng&quot; face=&quot;Ma Shan Zheng&quot;&gt;x&lt;sub style=&quot;&quot;&gt;6&lt;/sub&gt;&lt;/font&gt;" style="text;html=1;align=center;verticalAlign=middle;whiteSpace=wrap;rounded=0;fontFamily=Helvetica;fontSize=11;fontColor=default;labelBackgroundColor=default;" vertex="1" parent="1">
          <mxGeometry x="714" y="176" width="60" height="30" as="geometry" />
        </mxCell>
        <mxCell id="dbSCkXmtqoAMXs0ZTFc3-85" value="&lt;font style=&quot;font-size: 30px;&quot;&gt;...&lt;/font&gt;" style="text;html=1;align=center;verticalAlign=middle;whiteSpace=wrap;rounded=0;fontFamily=Helvetica;fontSize=11;fontColor=default;labelBackgroundColor=default;rotation=20;" vertex="1" parent="1">
          <mxGeometry x="717" y="152" width="19" height="1" as="geometry" />
        </mxCell>
        <mxCell id="dbSCkXmtqoAMXs0ZTFc3-86" style="edgeStyle=none;curved=1;rounded=0;orthogonalLoop=1;jettySize=auto;html=1;exitX=0.25;exitY=1;exitDx=0;exitDy=0;fontSize=12;startSize=8;endSize=8;" edge="1" parent="1" source="dbSCkXmtqoAMXs0ZTFc3-85" target="dbSCkXmtqoAMXs0ZTFc3-85">
          <mxGeometry relative="1" as="geometry" />
        </mxCell>
        <mxCell id="dbSCkXmtqoAMXs0ZTFc3-87" value="&lt;font style=&quot;font-size: 30px;&quot;&gt;...&lt;/font&gt;" style="text;html=1;align=center;verticalAlign=middle;whiteSpace=wrap;rounded=0;fontFamily=Helvetica;fontSize=11;fontColor=default;labelBackgroundColor=default;rotation=-15;" vertex="1" parent="1">
          <mxGeometry x="460.99808996912896" y="130.9990376719868" width="19" height="1" as="geometry" />
        </mxCell>
        <mxCell id="dbSCkXmtqoAMXs0ZTFc3-88" value="&lt;font style=&quot;font-size: 20px;&quot; data-font-src=&quot;https://fonts.googleapis.com/css?family=Ma+Shan+Zheng&quot; face=&quot;Ma Shan Zheng&quot;&gt;u&lt;/font&gt;" style="text;html=1;align=center;verticalAlign=middle;whiteSpace=wrap;rounded=0;fontFamily=Helvetica;fontSize=11;fontColor=default;labelBackgroundColor=default;" vertex="1" parent="1">
          <mxGeometry x="535" y="199" width="60" height="30" as="geometry" />
        </mxCell>
        <mxCell id="dbSCkXmtqoAMXs0ZTFc3-89" value="&lt;font style=&quot;font-size: 20px;&quot; data-font-src=&quot;https://fonts.googleapis.com/css?family=Ma+Shan+Zheng&quot; face=&quot;Ma Shan Zheng&quot;&gt;l-1&lt;/font&gt;" style="text;html=1;align=center;verticalAlign=middle;whiteSpace=wrap;rounded=0;fontFamily=Helvetica;fontSize=11;fontColor=default;labelBackgroundColor=default;" vertex="1" parent="1">
          <mxGeometry x="655" y="229" width="60" height="30" as="geometry" />
        </mxCell>
        <mxCell id="dbSCkXmtqoAMXs0ZTFc3-90" value="&lt;font style=&quot;font-size: 20px;&quot; data-font-src=&quot;https://fonts.googleapis.com/css?family=Ma+Shan+Zheng&quot; face=&quot;Ma Shan Zheng&quot;&gt;l&lt;/font&gt;" style="text;html=1;align=center;verticalAlign=middle;whiteSpace=wrap;rounded=0;fontFamily=Helvetica;fontSize=11;fontColor=default;labelBackgroundColor=default;" vertex="1" parent="1">
          <mxGeometry x="694" y="247" width="60" height="30" as="geometry" />
        </mxCell>
        <mxCell id="dbSCkXmtqoAMXs0ZTFc3-91" value="" style="ellipse;whiteSpace=wrap;html=1;aspect=fixed;fillColor=#0066CC;" vertex="1" parent="1">
          <mxGeometry x="604.5" y="85" width="11" height="11" as="geometry" />
        </mxCell>
        <mxCell id="dbSCkXmtqoAMXs0ZTFc3-92" value="&lt;font style=&quot;font-size: 20px;&quot; data-font-src=&quot;https://fonts.googleapis.com/css?family=Ma+Shan+Zheng&quot; face=&quot;Ma Shan Zheng&quot;&gt;v&lt;/font&gt;" style="text;html=1;align=center;verticalAlign=middle;whiteSpace=wrap;rounded=0;fontFamily=Helvetica;fontSize=11;fontColor=default;labelBackgroundColor=default;" vertex="1" parent="1">
          <mxGeometry x="592" y="55" width="60" height="30" as="geometry" />
        </mxCell>
        <mxCell id="dbSCkXmtqoAMXs0ZTFc3-94" style="edgeStyle=none;curved=1;rounded=0;orthogonalLoop=1;jettySize=auto;html=1;entryX=0.231;entryY=-0.039;entryDx=0;entryDy=0;entryPerimeter=0;fontSize=12;startSize=8;endSize=8;dashed=1;strokeColor=#ae4132;exitX=0.838;exitY=0.926;exitDx=0;exitDy=0;exitPerimeter=0;fillColor=#fad9d5;" edge="1" parent="1">
          <mxGeometry relative="1" as="geometry">
            <mxPoint x="521" y="134.99999999999997" as="sourcePoint" />
            <mxPoint x="606.644" y="93.21599999999998" as="targetPoint" />
          </mxGeometry>
        </mxCell>
        <mxCell id="dbSCkXmtqoAMXs0ZTFc3-95" style="edgeStyle=none;curved=1;rounded=0;orthogonalLoop=1;jettySize=auto;html=1;entryX=0.277;entryY=-0.011;entryDx=0;entryDy=0;entryPerimeter=0;fontSize=12;startSize=8;endSize=8;dashed=1;strokeColor=#ae4132;exitX=0.5;exitY=1;exitDx=0;exitDy=0;fillColor=#fad9d5;" edge="1" parent="1">
          <mxGeometry relative="1" as="geometry">
            <mxPoint x="575" y="126" as="sourcePoint" />
            <mxPoint x="611.418" y="96.00399999999996" as="targetPoint" />
          </mxGeometry>
        </mxCell>
        <mxCell id="dbSCkXmtqoAMXs0ZTFc3-96" style="edgeStyle=none;curved=1;rounded=0;orthogonalLoop=1;jettySize=auto;html=1;entryX=1;entryY=1;entryDx=0;entryDy=0;fontSize=12;startSize=8;endSize=8;dashed=1;strokeColor=#ae4132;fillColor=#fad9d5;" edge="1" parent="1" source="dbSCkXmtqoAMXs0ZTFc3-75" target="dbSCkXmtqoAMXs0ZTFc3-91">
          <mxGeometry relative="1" as="geometry" />
        </mxCell>
        <mxCell id="dbSCkXmtqoAMXs0ZTFc3-98" value="&lt;font style=&quot;font-size: 17px;&quot;&gt;(a) 基于Bellman-Ford的递归过程&lt;/font&gt;" style="text;html=1;align=center;verticalAlign=middle;whiteSpace=wrap;rounded=0;fontFamily=Helvetica;fontSize=11;fontColor=default;labelBackgroundColor=default;" vertex="1" parent="1">
          <mxGeometry x="22" y="324" width="257" height="30" as="geometry" />
        </mxCell>
        <mxCell id="dbSCkXmtqoAMXs0ZTFc3-99" value="&lt;font style=&quot;font-size: 17px;&quot;&gt;(b) 基于A*Net的递归过程&lt;/font&gt;" style="text;html=1;align=center;verticalAlign=middle;whiteSpace=wrap;rounded=0;fontFamily=Helvetica;fontSize=11;fontColor=default;labelBackgroundColor=default;" vertex="1" parent="1">
          <mxGeometry x="480" y="324" width="207" height="30" as="geometry" />
        </mxCell>
      </root>
    </mxGraphModel>
  </diagram>
  <diagram id="WXyBM2Mj2oI0mTL3QHqb" name="第 2 页">
    <mxGraphModel dx="936" dy="600" grid="1" gridSize="10" guides="1" tooltips="1" connect="1" arrows="1" fold="1" page="1" pageScale="1" pageWidth="827" pageHeight="1169" math="0" shadow="0">
      <root>
        <mxCell id="0" />
        <mxCell id="1" parent="0" />
        <mxCell id="d7HS9fSpkTuU8l6qnxPW-1" value="" style="ellipse;whiteSpace=wrap;html=1;dashed=1;strokeColor=#66B2FF;strokeWidth=1.5;" vertex="1" parent="1">
          <mxGeometry x="260" y="355" width="372.5" height="202" as="geometry" />
        </mxCell>
        <mxCell id="d7HS9fSpkTuU8l6qnxPW-2" value="" style="ellipse;whiteSpace=wrap;html=1;dashed=1;strokeColor=#66B2FF;strokeWidth=1.5;" vertex="1" parent="1">
          <mxGeometry x="322" y="397" width="257" height="136" as="geometry" />
        </mxCell>
        <mxCell id="d7HS9fSpkTuU8l6qnxPW-3" value="" style="ellipse;whiteSpace=wrap;html=1;dashed=1;strokeColor=#66B2FF;strokeWidth=1.5;" vertex="1" parent="1">
          <mxGeometry x="353" y="421" width="185" height="93" as="geometry" />
        </mxCell>
        <mxCell id="d7HS9fSpkTuU8l6qnxPW-4" value="" style="ellipse;whiteSpace=wrap;html=1;dashed=1;strokeColor=#66B2FF;strokeWidth=1.5;" vertex="1" parent="1">
          <mxGeometry x="386" y="444" width="115" height="52" as="geometry" />
        </mxCell>
        <mxCell id="d7HS9fSpkTuU8l6qnxPW-5" style="edgeStyle=none;curved=1;rounded=0;orthogonalLoop=1;jettySize=auto;html=1;entryX=1;entryY=1;entryDx=0;entryDy=0;fontSize=12;startSize=8;endSize=8;strokeColor=#66B2FF;" edge="1" parent="1" source="d7HS9fSpkTuU8l6qnxPW-10" target="d7HS9fSpkTuU8l6qnxPW-16">
          <mxGeometry relative="1" as="geometry" />
        </mxCell>
        <mxCell id="d7HS9fSpkTuU8l6qnxPW-6" style="edgeStyle=none;curved=1;rounded=0;orthogonalLoop=1;jettySize=auto;html=1;entryX=1;entryY=1;entryDx=0;entryDy=0;fontSize=12;startSize=8;endSize=8;strokeColor=#66B2FF;" edge="1" parent="1" source="d7HS9fSpkTuU8l6qnxPW-10" target="d7HS9fSpkTuU8l6qnxPW-11">
          <mxGeometry relative="1" as="geometry" />
        </mxCell>
        <mxCell id="d7HS9fSpkTuU8l6qnxPW-7" style="edgeStyle=none;curved=1;rounded=0;orthogonalLoop=1;jettySize=auto;html=1;entryX=0;entryY=0.5;entryDx=0;entryDy=0;fontSize=12;startSize=8;endSize=8;strokeColor=#66B2FF;" edge="1" parent="1" source="d7HS9fSpkTuU8l6qnxPW-10" target="d7HS9fSpkTuU8l6qnxPW-17">
          <mxGeometry relative="1" as="geometry" />
        </mxCell>
        <mxCell id="d7HS9fSpkTuU8l6qnxPW-8" style="edgeStyle=none;curved=1;rounded=0;orthogonalLoop=1;jettySize=auto;html=1;entryX=0;entryY=1;entryDx=0;entryDy=0;fontSize=12;startSize=8;endSize=8;strokeColor=#66B2FF;" edge="1" parent="1" source="d7HS9fSpkTuU8l6qnxPW-10" target="d7HS9fSpkTuU8l6qnxPW-15">
          <mxGeometry relative="1" as="geometry" />
        </mxCell>
        <mxCell id="d7HS9fSpkTuU8l6qnxPW-9" style="edgeStyle=none;curved=1;rounded=0;orthogonalLoop=1;jettySize=auto;html=1;fontSize=12;startSize=8;endSize=8;strokeColor=#66B2FF;" edge="1" parent="1" source="d7HS9fSpkTuU8l6qnxPW-10" target="d7HS9fSpkTuU8l6qnxPW-14">
          <mxGeometry relative="1" as="geometry" />
        </mxCell>
        <mxCell id="d7HS9fSpkTuU8l6qnxPW-10" value="" style="ellipse;whiteSpace=wrap;html=1;aspect=fixed;fillColor=#7EA6E0;" vertex="1" parent="1">
          <mxGeometry x="436" y="463" width="11" height="11" as="geometry" />
        </mxCell>
        <mxCell id="d7HS9fSpkTuU8l6qnxPW-11" value="" style="ellipse;whiteSpace=wrap;html=1;aspect=fixed;fillColor=#D4E1F5;" vertex="1" parent="1">
          <mxGeometry x="382" y="400" width="11" height="11" as="geometry" />
        </mxCell>
        <mxCell id="d7HS9fSpkTuU8l6qnxPW-12" value="" style="ellipse;whiteSpace=wrap;html=1;aspect=fixed;fillColor=#D4E1F5;" vertex="1" parent="1">
          <mxGeometry x="434" y="391" width="11" height="11" as="geometry" />
        </mxCell>
        <mxCell id="d7HS9fSpkTuU8l6qnxPW-13" style="edgeStyle=none;curved=1;rounded=0;orthogonalLoop=1;jettySize=auto;html=1;entryX=1;entryY=1;entryDx=0;entryDy=0;fontSize=12;startSize=8;endSize=8;dashed=1;strokeColor=#004C99;" edge="1" parent="1" source="d7HS9fSpkTuU8l6qnxPW-14" target="d7HS9fSpkTuU8l6qnxPW-31">
          <mxGeometry relative="1" as="geometry" />
        </mxCell>
        <mxCell id="d7HS9fSpkTuU8l6qnxPW-14" value="" style="ellipse;whiteSpace=wrap;html=1;aspect=fixed;fillColor=#D4E1F5;" vertex="1" parent="1">
          <mxGeometry x="484" y="394" width="11" height="11" as="geometry" />
        </mxCell>
        <mxCell id="d7HS9fSpkTuU8l6qnxPW-15" value="" style="ellipse;whiteSpace=wrap;html=1;aspect=fixed;fillColor=#DAE8FC;" vertex="1" parent="1">
          <mxGeometry x="542" y="414" width="11" height="11" as="geometry" />
        </mxCell>
        <mxCell id="d7HS9fSpkTuU8l6qnxPW-16" value="" style="ellipse;whiteSpace=wrap;html=1;aspect=fixed;fillColor=#D4E1F5;" vertex="1" parent="1">
          <mxGeometry x="338" y="421" width="11" height="11" as="geometry" />
        </mxCell>
        <mxCell id="d7HS9fSpkTuU8l6qnxPW-17" value="" style="ellipse;whiteSpace=wrap;html=1;aspect=fixed;fillColor=#D4E1F5;" vertex="1" parent="1">
          <mxGeometry x="574" y="457" width="11" height="11" as="geometry" />
        </mxCell>
        <mxCell id="d7HS9fSpkTuU8l6qnxPW-18" style="edgeStyle=none;curved=1;rounded=0;orthogonalLoop=1;jettySize=auto;html=1;entryX=0.459;entryY=0.03;entryDx=0;entryDy=0;entryPerimeter=0;fontSize=12;startSize=8;endSize=8;strokeColor=#66B2FF;" edge="1" parent="1" source="d7HS9fSpkTuU8l6qnxPW-10" target="d7HS9fSpkTuU8l6qnxPW-2">
          <mxGeometry relative="1" as="geometry" />
        </mxCell>
        <mxCell id="d7HS9fSpkTuU8l6qnxPW-19" value="&lt;font style=&quot;font-size: 20px;&quot; data-font-src=&quot;https://fonts.googleapis.com/css?family=Ma+Shan+Zheng&quot; face=&quot;Ma Shan Zheng&quot;&gt;x&lt;sub style=&quot;&quot;&gt;1&lt;/sub&gt;&lt;/font&gt;" style="text;html=1;align=center;verticalAlign=middle;whiteSpace=wrap;rounded=0;fontFamily=Helvetica;fontSize=11;fontColor=default;labelBackgroundColor=default;" vertex="1" parent="1">
          <mxGeometry x="286" y="414" width="47" height="24" as="geometry" />
        </mxCell>
        <mxCell id="d7HS9fSpkTuU8l6qnxPW-20" value="&lt;font style=&quot;font-size: 20px;&quot; data-font-src=&quot;https://fonts.googleapis.com/css?family=Ma+Shan+Zheng&quot; face=&quot;Ma Shan Zheng&quot;&gt;x&lt;sub style=&quot;&quot;&gt;2&lt;/sub&gt;&lt;/font&gt;" style="text;html=1;align=center;verticalAlign=middle;whiteSpace=wrap;rounded=0;fontFamily=Helvetica;fontSize=11;fontColor=default;labelBackgroundColor=default;" vertex="1" parent="1">
          <mxGeometry x="341" y="375" width="60" height="30" as="geometry" />
        </mxCell>
        <mxCell id="d7HS9fSpkTuU8l6qnxPW-21" value="&lt;font style=&quot;font-size: 20px;&quot; face=&quot;Ma Shan Zheng&quot;&gt;x&lt;sub style=&quot;&quot;&gt;3&lt;/sub&gt;&lt;/font&gt;" style="text;html=1;align=center;verticalAlign=middle;whiteSpace=wrap;rounded=0;fontFamily=Helvetica;fontSize=11;fontColor=default;labelBackgroundColor=default;" vertex="1" parent="1">
          <mxGeometry x="409.5" y="361" width="60" height="30" as="geometry" />
        </mxCell>
        <mxCell id="d7HS9fSpkTuU8l6qnxPW-22" value="&lt;font style=&quot;font-size: 20px;&quot; data-font-src=&quot;https://fonts.googleapis.com/css?family=Ma+Shan+Zheng&quot; face=&quot;Ma Shan Zheng&quot;&gt;x&lt;sub style=&quot;&quot;&gt;4&lt;/sub&gt;&lt;/font&gt;" style="text;html=1;align=center;verticalAlign=middle;whiteSpace=wrap;rounded=0;fontFamily=Helvetica;fontSize=11;fontColor=default;labelBackgroundColor=default;" vertex="1" parent="1">
          <mxGeometry x="474" y="368" width="54" height="26" as="geometry" />
        </mxCell>
        <mxCell id="d7HS9fSpkTuU8l6qnxPW-23" value="&lt;font style=&quot;font-size: 20px;&quot; data-font-src=&quot;https://fonts.googleapis.com/css?family=Ma+Shan+Zheng&quot; face=&quot;Ma Shan Zheng&quot;&gt;x&lt;sub style=&quot;&quot;&gt;5&lt;/sub&gt;&lt;/font&gt;" style="text;html=1;align=center;verticalAlign=middle;whiteSpace=wrap;rounded=0;fontFamily=Helvetica;fontSize=11;fontColor=default;labelBackgroundColor=default;" vertex="1" parent="1">
          <mxGeometry x="534" y="387" width="60" height="30" as="geometry" />
        </mxCell>
        <mxCell id="d7HS9fSpkTuU8l6qnxPW-24" value="&lt;font style=&quot;font-size: 20px;&quot; data-font-src=&quot;https://fonts.googleapis.com/css?family=Ma+Shan+Zheng&quot; face=&quot;Ma Shan Zheng&quot;&gt;x&lt;sub style=&quot;&quot;&gt;6&lt;/sub&gt;&lt;/font&gt;" style="text;html=1;align=center;verticalAlign=middle;whiteSpace=wrap;rounded=0;fontFamily=Helvetica;fontSize=11;fontColor=default;labelBackgroundColor=default;" vertex="1" parent="1">
          <mxGeometry x="579" y="441" width="60" height="30" as="geometry" />
        </mxCell>
        <mxCell id="d7HS9fSpkTuU8l6qnxPW-25" value="&lt;font style=&quot;font-size: 30px;&quot;&gt;...&lt;/font&gt;" style="text;html=1;align=center;verticalAlign=middle;whiteSpace=wrap;rounded=0;fontFamily=Helvetica;fontSize=11;fontColor=default;labelBackgroundColor=default;rotation=20;" vertex="1" parent="1">
          <mxGeometry x="582" y="417" width="19" height="1" as="geometry" />
        </mxCell>
        <mxCell id="d7HS9fSpkTuU8l6qnxPW-26" style="edgeStyle=none;curved=1;rounded=0;orthogonalLoop=1;jettySize=auto;html=1;exitX=0.25;exitY=1;exitDx=0;exitDy=0;fontSize=12;startSize=8;endSize=8;" edge="1" parent="1" source="d7HS9fSpkTuU8l6qnxPW-25" target="d7HS9fSpkTuU8l6qnxPW-25">
          <mxGeometry relative="1" as="geometry" />
        </mxCell>
        <mxCell id="d7HS9fSpkTuU8l6qnxPW-27" value="&lt;font style=&quot;font-size: 30px;&quot;&gt;...&lt;/font&gt;" style="text;html=1;align=center;verticalAlign=middle;whiteSpace=wrap;rounded=0;fontFamily=Helvetica;fontSize=11;fontColor=default;labelBackgroundColor=default;rotation=-15;" vertex="1" parent="1">
          <mxGeometry x="325.99808996912896" y="395.9990376719868" width="19" height="1" as="geometry" />
        </mxCell>
        <mxCell id="d7HS9fSpkTuU8l6qnxPW-28" value="&lt;font style=&quot;font-size: 20px;&quot; data-font-src=&quot;https://fonts.googleapis.com/css?family=Ma+Shan+Zheng&quot; face=&quot;Ma Shan Zheng&quot;&gt;u&lt;/font&gt;" style="text;html=1;align=center;verticalAlign=middle;whiteSpace=wrap;rounded=0;fontFamily=Helvetica;fontSize=11;fontColor=default;labelBackgroundColor=default;" vertex="1" parent="1">
          <mxGeometry x="400" y="464" width="60" height="30" as="geometry" />
        </mxCell>
        <mxCell id="d7HS9fSpkTuU8l6qnxPW-29" value="&lt;font style=&quot;font-size: 20px;&quot; data-font-src=&quot;https://fonts.googleapis.com/css?family=Ma+Shan+Zheng&quot; face=&quot;Ma Shan Zheng&quot;&gt;l-1&lt;/font&gt;" style="text;html=1;align=center;verticalAlign=middle;whiteSpace=wrap;rounded=0;fontFamily=Helvetica;fontSize=11;fontColor=default;labelBackgroundColor=default;" vertex="1" parent="1">
          <mxGeometry x="520" y="494" width="60" height="30" as="geometry" />
        </mxCell>
        <mxCell id="d7HS9fSpkTuU8l6qnxPW-30" value="&lt;font style=&quot;font-size: 20px;&quot; data-font-src=&quot;https://fonts.googleapis.com/css?family=Ma+Shan+Zheng&quot; face=&quot;Ma Shan Zheng&quot;&gt;l&lt;/font&gt;" style="text;html=1;align=center;verticalAlign=middle;whiteSpace=wrap;rounded=0;fontFamily=Helvetica;fontSize=11;fontColor=default;labelBackgroundColor=default;" vertex="1" parent="1">
          <mxGeometry x="559" y="512" width="60" height="30" as="geometry" />
        </mxCell>
        <mxCell id="d7HS9fSpkTuU8l6qnxPW-31" value="" style="ellipse;whiteSpace=wrap;html=1;aspect=fixed;fillColor=#0066CC;" vertex="1" parent="1">
          <mxGeometry x="469.5" y="350" width="11" height="11" as="geometry" />
        </mxCell>
        <mxCell id="d7HS9fSpkTuU8l6qnxPW-32" value="&lt;font style=&quot;font-size: 20px;&quot; data-font-src=&quot;https://fonts.googleapis.com/css?family=Ma+Shan+Zheng&quot; face=&quot;Ma Shan Zheng&quot;&gt;v&lt;/font&gt;" style="text;html=1;align=center;verticalAlign=middle;whiteSpace=wrap;rounded=0;fontFamily=Helvetica;fontSize=11;fontColor=default;labelBackgroundColor=default;" vertex="1" parent="1">
          <mxGeometry x="457" y="320" width="60" height="30" as="geometry" />
        </mxCell>
        <mxCell id="d7HS9fSpkTuU8l6qnxPW-33" style="edgeStyle=none;curved=1;rounded=0;orthogonalLoop=1;jettySize=auto;html=1;entryX=0.578;entryY=0.012;entryDx=0;entryDy=0;entryPerimeter=0;fontSize=12;startSize=8;endSize=8;dashed=1;strokeColor=#004C99;exitX=0.5;exitY=0;exitDx=0;exitDy=0;" edge="1" parent="1" source="d7HS9fSpkTuU8l6qnxPW-16">
          <mxGeometry relative="1" as="geometry">
            <mxPoint x="342.5719567209798" y="424.99773870675716" as="sourcePoint" />
            <mxPoint x="469.50499999999994" y="358.474" as="targetPoint" />
          </mxGeometry>
        </mxCell>
        <mxCell id="d7HS9fSpkTuU8l6qnxPW-34" style="edgeStyle=none;curved=1;rounded=0;orthogonalLoop=1;jettySize=auto;html=1;entryX=0.231;entryY=-0.039;entryDx=0;entryDy=0;entryPerimeter=0;fontSize=12;startSize=8;endSize=8;dashed=1;strokeColor=#004C99;exitX=0.838;exitY=0.926;exitDx=0;exitDy=0;exitPerimeter=0;" edge="1" parent="1" source="d7HS9fSpkTuU8l6qnxPW-20">
          <mxGeometry relative="1" as="geometry">
            <mxPoint x="385.99913234259026" y="400.32911426546934" as="sourcePoint" />
            <mxPoint x="476.92400000000004" y="360.996" as="targetPoint" />
          </mxGeometry>
        </mxCell>
        <mxCell id="d7HS9fSpkTuU8l6qnxPW-35" style="edgeStyle=none;curved=1;rounded=0;orthogonalLoop=1;jettySize=auto;html=1;entryX=0.277;entryY=-0.011;entryDx=0;entryDy=0;entryPerimeter=0;fontSize=12;startSize=8;endSize=8;dashed=1;strokeColor=#004C99;exitX=0.5;exitY=1;exitDx=0;exitDy=0;" edge="1" parent="1" source="d7HS9fSpkTuU8l6qnxPW-21">
          <mxGeometry relative="1" as="geometry">
            <mxPoint x="433.999576527066" y="389.68480355613906" as="sourcePoint" />
            <mxPoint x="475.918" y="361.00399999999996" as="targetPoint" />
          </mxGeometry>
        </mxCell>
        <mxCell id="d7HS9fSpkTuU8l6qnxPW-36" style="edgeStyle=none;curved=1;rounded=0;orthogonalLoop=1;jettySize=auto;html=1;entryX=1.033;entryY=0.668;entryDx=0;entryDy=0;entryPerimeter=0;fontSize=12;startSize=8;endSize=8;dashed=1;strokeColor=#004C99;" edge="1" parent="1" source="d7HS9fSpkTuU8l6qnxPW-15" target="d7HS9fSpkTuU8l6qnxPW-31">
          <mxGeometry relative="1" as="geometry" />
        </mxCell>
        <mxCell id="d7HS9fSpkTuU8l6qnxPW-37" style="edgeStyle=none;curved=1;rounded=0;orthogonalLoop=1;jettySize=auto;html=1;entryX=0.588;entryY=0.022;entryDx=0;entryDy=0;entryPerimeter=0;fontSize=12;startSize=8;endSize=8;dashed=1;strokeColor=#004C99;" edge="1" parent="1" source="d7HS9fSpkTuU8l6qnxPW-17" target="d7HS9fSpkTuU8l6qnxPW-1">
          <mxGeometry relative="1" as="geometry" />
        </mxCell>
      </root>
    </mxGraphModel>
  </diagram>
</mxfile>
